<?xml version="1.0" encoding="iso-8859-1"?>
<!-- Uploaded to: SVG Repo, www.svgrepo.com, Generator: SVG Repo Mixer Tools -->
<!DOCTYPE svg PUBLIC "-//W3C//DTD SVG 1.1//EN" "http://www.w3.org/Graphics/SVG/1.1/DTD/svg11.dtd">
<svg fill="#4d85e9" version="1.1" id="Capa_1" xmlns="http://www.w3.org/2000/svg" xmlns:xlink="http://www.w3.org/1999/xlink" 
	 width="800px" height="800px" viewBox="0 0 97.395 97.395"
	 xml:space="preserve">
<g>
	<g>
		<path d="M53.753,53.665v0.024v43.705c0.91-0.074,1.793-0.17,2.653-0.287V54.284l-2.604-0.608L53.753,53.665z"/>
		<path d="M31.742,45.267C23.724,50.026,15.345,61.035,14.2,83.225c-0.203,3.92,2.431,7.283,5.883,7.513
			c0.125,0.008,6.758,0.345,6.758,0.345c2.414,2.741,6.332,4.498,11.043,5.488V55.008l-8.204,1.914L31.742,45.267z"/>
		<path d="M40.99,97.098c0.867,0.117,1.75,0.217,2.653,0.291V53.665l-2.653,0.619V97.098z"/>
		<path d="M83.194,83.227c-1.138-22.043-9.412-33.066-17.383-37.879c-0.004-0.005-0.011-0.008-0.015-0.012
			c-0.035,0.046-0.073,0.089-0.108,0.135l2.025,11.452l-8.204-1.914V96.57c4.847-1.039,8.662-2.868,11.043-5.489
			c0,0,6.632-0.337,6.755-0.345C80.762,90.508,83.397,87.145,83.194,83.227z"/>
		<polygon points="43.644,53.665 43.644,53.661 43.634,53.659 		"/>
		<path d="M67.039,36.115c0.673-0.063,1.285-0.236,1.842-0.501c2.412-1.153,3.761-4.064,4.33-7.386
			c0.833-4.885-0.919-7.268-4.009-7.801C68.148,8.955,64.852,0,48.699,0c-4.57,0-8.108,0.708-10.856,1.982
			c-7.024,3.254-8.894,10.199-9.649,18.444c-0.579,0.1-1.111,0.266-1.588,0.5c-2.067,1.016-3.098,3.333-2.419,7.302
			c0.707,4.135,2.654,7.579,6.177,7.887c3.458,8.947,9.966,14.826,18.335,14.826c2.499,0,4.894-0.553,7.107-1.592
			C60.68,47.061,64.688,42.418,67.039,36.115z M48.699,45.128c-7.868,0-13.377-7.246-14.934-17.229
			c3.362-0.231,6.346-1.222,8.893-2.518c5.603-2.851,9.091-7.179,9.825-8.151c1.017,2.035,3.92,6.012,11.484,7.799
			c-0.535,8.833-4.157,15.722-9.459,18.615C52.741,44.608,50.788,45.128,48.699,45.128z"/>
	</g>
</g>
</svg>